<svg xmlns="http://www.w3.org/2000/svg" viewBox="0 0 512 512" role="img" aria-labelledby="title">
  <title id="title">Foco Jornada</title>
  <rect width="512" height="512" rx="116" fill="#f5f8f4"/>
  <g transform="translate(64 62) scale(3)" fill="none" stroke-linecap="round" stroke-linejoin="round">
    <path d="M92 90a43 43 0 1 0-20 13" stroke="#34413f" stroke-width="9"/>
    <path d="M91 90a43 43 0 0 0 9-27" stroke="#56a96a" stroke-width="9"/>
    <path d="M64 37v28l18 11" stroke="#34413f" stroke-width="8"/>
    <circle cx="64" cy="65" r="5.5" fill="#34413f" stroke="none"/>
    <path d="M54 103c14-7 30-10 48-9-13 3-23 7-29 12 9 1 17 4 24 9-17 5-34 3-50-5 9-1 16-3 21-5-5-2-10-2-14-2Z" fill="#56a96a" stroke="none"/>
  </g>
</svg>